# xmcd CD database file
#
# Track frame offsets:
#	150
#	17683
#	31343
#	42769
#	56543
#	73911
#	83361
#	97038
#	107825
#	127557
#
# Disc length: 1904 seconds
#
# Revision: 1
# Processed by: cddbd v1.5.2PL0 Copyright (c) Steve Scherf et al.
# Submitted via: CDex 1.70beta2
#
DISCID=73076e0a
DTITLE=Peter Sadul - Late Early Hours
DYEAR=2007
DGENRE=Blues
TTITLE0=Thinking Bout You
TTITLE1=Small Town Girl
TTITLE2=Downbound Train
TTITLE3=Stranded
TTITLE4=Runaway Bride
TTITLE5=Who Will Take You Home?
TTITLE6=Red Light
TTITLE7=They Keep Talking Bout It
TTITLE8=Lovepotion
TTITLE9=Bloodbrother
EXTD=YEAR: 2007
EXTT0=
EXTT1=
EXTT2=
EXTT3=
EXTT4=
EXTT5=
EXTT6=
EXTT7=
EXTT8=
EXTT9=
PLAYORDER=
